#!OML:ASF H:\Terrain\Walking\May29\JustinRory\Justin.ASF
:FULLY-SPECIFIED
:DEGREES
1107
root 10.6767 17.9006 6.08627 -177.168 -22.1098 -173.747 
lowerback 3.65944 0.806897 0.137352 
upperback 2.24325 0.98397 1.8913 
thorax 0.218698 0.439934 1.82827 
lowerneck -6.39714 -12.6824 -18.3797 
upperneck 20.7245 -18.1635 9.12524 
head 10.18 -9.3617 3.78361 
rclavicle 2.28602e-15 3.02153e-14 
rhumerus -12.7139 12.5354 -86.3697 
rradius 58.2809 
rwrist -32.4505 
rhand -21.2451 33.8111 
rfingers 7.12502 
rthumb 5.13769 3.89342 
lclavicle 2.28602e-15 3.02153e-14 
lhumerus -35.6322 5.0447 79.5147 
lradius 48.608 
lwrist -2.20731 
lhand -3.64615 32.9118 
lfingers 7.12502 
lthumb 22.0937 61.6696 
rfemur -16.8724 -3.09569 30.7572 
rtibia 25.3678 
rfoot -11.2407 -7.05947 
rtoes 15.4757 
lfemur -14.5294 2.64853 -8.16952 
ltibia 30.3272 
lfoot -15.0223 3.1084 
ltoes -14.3209 
1108
root 10.6919 17.8983 6.1027 -177.058 -22.1023 -173.73 
lowerback 3.73098 0.943855 0.210517 
upperback 2.15924 1.17471 1.85314 
thorax 0.0889445 0.53852 1.73939 
lowerneck -6.24987 -12.7979 -18.6261 
upperneck 20.6917 -18.3743 9.33978 
head 10.2217 -9.46158 3.8632 
rclavicle 5.1684e-15 -1.0138e-14 
rhumerus -12.7134 12.5138 -86.4153 
rradius 57.087 
rwrist -31.9202 
rhand -21.2367 33.9482 
rfingers 7.12502 
rthumb 5.14585 4.03069 
lclavicle 5.1684e-15 -1.0138e-14 
lhumerus -35.2749 4.41841 79.7281 
lradius 48.7975 
lwrist -1.95891 
lhand -3.14023 32.7472 
lfingers 7.12502 
lthumb 22.5794 61.4467 
rfemur -17.0645 -3.0997 30.8287 
rtibia 25.3139 
rfoot -11.1602 -7.08116 
rtoes 15.6193 
lfemur -14.6366 2.80361 -8.10539 
ltibia 30.1911 
lfoot -15.0209 2.8373 
ltoes -15.0617 
1109
root 10.7087 17.9042 6.12477 -176.807 -22.1359 -173.91 
lowerback 3.73985 1.0721 0.185692 
upperback 2.12178 1.35067 1.71383 
thorax 0.043158 0.629667 1.60324 
lowerneck -6.20686 -12.924 -18.8881 
upperneck 20.6054 -18.5858 9.66926 
head 10.2785 -9.54479 3.97778 
rclavicle 2.57923e-14 -1.31198e-14 
rhumerus -12.7591 12.3096 -86.6046 
rradius 56.0808 
rwrist -31.7325 
rhand -21.5279 34.7254 
rfingers 7.12502 
rthumb 4.86466 4.80119 
lclavicle 2.57923e-14 -1.31198e-14 
lhumerus -34.7486 3.88808 79.8124 
lradius 48.8176 
lwrist -1.82742 
lhand -2.65327 32.6267 
lfingers 7.12502 
lthumb 23.0467 61.2687 
rfemur -17.353 -3.15535 30.6966 
rtibia 25.2458 
rfoot -11.0904 -7.05297 
rtoes 15.6877 
lfemur -14.9498 2.86199 -8.2888 
ltibia 30.1561 
lfoot -14.7289 2.85252 
ltoes -14.5577 
1110
root 10.719 17.9048 6.15086 -176.538 -22.2226 -174.222 
lowerback 3.77138 1.19958 0.203863 
upperback 2.14217 1.52534 1.44803 
thorax 0.0493441 0.720625 1.31351 
lowerneck -6.31367 -13.0327 -18.9185 
upperneck 20.5305 -18.7589 9.96419 
head 10.3338 -9.58981 4.04583 
rclavicle -1.08338e-14 1.43125e-14 
rhumerus -12.9019 11.9266 -86.9243 
rradius 55.4798 
rwrist -31.8237 
rhand -22.0822 35.6568 
rfingers 7.12502 
rthumb 4.32942 5.72107 
lclavicle -1.08338e-14 1.43125e-14 
lhumerus -34.1125 3.21977 79.7437 
lradius 48.84 
lwrist -1.75319 
lhand -3.31218 31.6904 
lfingers 7.12502 
lthumb 22.4143 60.4099 
rfemur -17.671 -3.34241 30.3723 
rtibia 25.1896 
rfoot -11.0413 -6.91856 
rtoes 16.7886 
lfemur -15.275 2.97917 -8.6215 
ltibia 30.1627 
lfoot -14.4602 2.58612 
ltoes -12.1184 
1111
root 10.7257 17.9097 6.17514 -176.343 -22.2958 -174.309 
lowerback 3.77627 1.31508 0.273342 
upperback 2.15489 1.68129 1.3977 
thorax 0.0598337 0.799438 1.21725 
lowerneck -6.54975 -13.1357 -18.8987 
upperneck 20.4954 -18.8233 9.93697 
head 10.3709 -9.60092 4.00556 
rclavicle 2.38045e-14 -2.66371e-14 
rhumerus -13.1825 11.4029 -87.0758 
rradius 55.235 
rwrist -31.6952 
rhand -22.4333 36.6694 
rfingers 7.12502 
rthumb 3.99039 6.72699 
lclavicle 2.38045e-14 -2.66371e-14 
lhumerus -33.5302 2.75614 79.8482 
lradius 48.9112 
lwrist -1.86609 
lhand -3.37633 31.0706 
lfingers 7.12502 
lthumb 22.3528 59.7976 
rfemur -17.9777 -3.57339 30.2705 
rtibia 25.1531 
rfoot -10.9775 -6.70575 
rtoes 18.4209 
lfemur -15.5854 3.1297 -8.7325 
ltibia 30.1535 
lfoot -14.2136 2.33475 
ltoes -10.9412 
1112
root 10.7375 17.9201 6.19556 -176.119 -22.279 -174.623 
lowerback 3.81726 1.44721 -0.0625043 
upperback 2.18038 1.84673 1.40835 
thorax 0.0488475 0.879261 1.40938 
lowerneck -6.72115 -13.2776 -18.6748 
upperneck 20.2267 -18.8282 9.49702 
head 10.2363 -9.59955 3.81376 
rclavicle -1.93815e-14 6.55989e-15 
rhumerus -13.6277 10.7193 -87.178 
rradius 55.7412 
rwrist -31.5378 
rhand -22.8495 36.2013 
rfingers 7.12502 
rthumb 3.58848 6.25179 
lclavicle -1.93815e-14 6.55989e-15 
lhumerus -33.0174 2.52163 80.016 
lradius 48.9811 
lwrist -2.09524 
lhand -1.90451 31.9841 
lfingers 7.12502 
lthumb 23.765 60.5345 
rfemur -18.1847 -3.78339 29.983 
rtibia 25.13 
rfoot -10.8645 -6.48871 
rtoes 18.9607 
lfemur -15.8305 3.25693 -9.11558 
ltibia 30.1515 
lfoot -14.0535 2.46572 
ltoes -13.4004 
1113
root 10.7511 17.9202 6.22234 -175.909 -22.2577 -175.124 
lowerback 4.03711 1.60816 -0.400443 
upperback 2.22984 2.04962 1.26983 
thorax -0.0350124 0.978632 1.44335 
lowerneck -6.6669 -13.4416 -18.5543 
upperneck 19.7392 -18.9324 9.33513 
head 10.0386 -9.63459 3.73382 
rclavicle 2.88238e-14 -6.75868e-15 
rhumerus -14.2669 9.81734 -87.3818 
rradius 56.5688 
rwrist -31.3846 
rhand -23.2796 36.245 
rfingers 7.12502 
rthumb 3.17308 6.28888 
lclavicle 2.88238e-14 -6.75868e-15 
lhumerus -32.5409 2.18657 80.0293 
lradius 49.0793 
lwrist -2.0627 
lhand -1.09127 32.4558 
lfingers 7.12502 
lthumb 24.5447 60.9026 
rfemur -18.3908 -4.20377 29.5459 
rtibia 25.157 
rfoot -10.6578 -6.24023 
rtoes 18.1816 
lfemur -16.0078 3.30133 -9.68569 
ltibia 30.1613 
lfoot -14.0624 2.57199 
ltoes -15.0265 
1114
root 10.762 17.915 6.25773 -175.857 -22.367 -174.948 
lowerback 4.35195 1.73838 0.0659909 
upperback 2.17911 2.23896 1.26795 
thorax -0.249874 1.07633 1.16181 
lowerneck -6.56947 -13.5743 -18.9255 
upperneck 19.379 -19.095 9.70006 
head 9.99788 -9.69344 3.88885 
rclavicle 1.05853e-14 -3.69739e-14 
rhumerus -14.9153 9.01557 -87.498 
rradius 57.4897 
rwrist -31.5922 
rhand -23.8294 36.5034 
rfingers 7.12502 
rthumb 2.64211 6.54004 
lclavicle 1.05853e-14 -3.69739e-14 
lhumerus -32.1775 1.85352 80.0392 
lradius 49.2629 
lwrist -2.18727 
lhand -1.61605 32.283 
lfingers 7.12502 
lthumb 24.0416 60.7971 
rfemur -18.7707 -4.53352 29.7951 
rtibia 25.2276 
rfoot -10.3472 -6.23675 
rtoes 16.4796 
lfemur -16.3394 3.23584 -9.53976 
ltibia 30.1954 
lfoot -13.9885 2.61086 
ltoes -14.6778 
1115
root 10.772 17.9085 6.29356 -175.929 -22.5236 -174.248 
lowerback 4.65734 1.83856 1.0211 
upperback 2.05017 2.41279 1.39487 
thorax -0.521126 1.16612 0.737321 
lowerneck -6.50517 -13.6765 -19.1468 
upperneck 19.1048 -19.2157 9.9321 
head 9.95759 -9.73657 3.98262 
rclavicle -4.87022e-15 -2.98177e-15 
rhumerus -15.4442 8.16277 -87.6338 
rradius 58.4363 
rwrist -31.763 
rhand -24.324 36.6026 
rfingers 7.12502 
rthumb 2.16444 6.63386 
lclavicle -4.87022e-15 -2.98177e-15 
lhumerus -31.8368 1.71686 80.0118 
lradius 49.402 
lwrist -2.82297 
lhand -1.67877 32.5881 
lfingers 7.12502 
lthumb 23.9815 61.1102 
rfemur -19.1914 -4.52209 30.4912 
rtibia 25.3004 
rfoot -10.2256 -6.31929 
rtoes 17.709 
lfemur -16.7713 3.17311 -8.84099 
ltibia 30.2997 
lfoot -13.8068 2.58039 
ltoes -14.4643 
1116
root 10.7841 17.9075 6.32774 -175.919 -22.5912 -174.039 
lowerback 4.95625 1.95058 1.44064 
upperback 2.01402 2.58335 1.41257 
thorax -0.707477 1.25037 0.501303 
lowerneck -6.43313 -13.6627 -19.4238 
upperneck 18.7874 -19.1963 10.3235 
head 9.90232 -9.70775 4.16545 
rclavicle -3.44394e-14 2.18663e-15 
rhumerus -16.0429 7.12352 -87.8325 
rradius 59.7883 
rwrist -31.7201 
rhand -24.7396 36.3436 
rfingers 7.12502 
rthumb 1.76302 6.37118 
lclavicle -3.44394e-14 2.18663e-15 
lhumerus -31.4914 1.72904 79.9704 
lradius 49.4791 
lwrist -3.20531 
lhand -1.18308 32.575 
lfingers 7.12502 
lthumb 24.4567 61.0337 
rfemur -19.4825 -4.52006 30.6753 
rtibia 25.4088 
rfoot -10.2954 -6.26457 
rtoes 19.5005 
lfemur -17.1085 3.0003 -8.62218 
ltibia 30.4406 
lfoot -13.7722 2.53811 
ltoes -13.056 
1117
root 10.7984 17.918 6.36155 -175.451 -22.6081 -174.603 
lowerback 4.98382 2.09402 1.0572 
upperback 2.01378 2.76087 1.2795 
thorax -0.734847 1.3401 0.568203 
lowerneck -6.35692 -13.6445 -19.6211 
upperneck 18.3989 -19.1417 10.6091 
head 9.79556 -9.66422 4.30925 
rclavicle 6.36111e-14 -1.98785e-16 
rhumerus -16.5728 6.106 -87.9242 
rradius 61.3396 
rwrist -31.8794 
rhand -25.2542 36.0541 
rfingers 7.12502 
rthumb 1.26606 6.07816 
lclavicle 6.36111e-14 -1.98785e-16 
lhumerus -31.1884 1.84277 79.9833 
lradius 49.634 
lwrist -3.51287 
lhand -1.46082 32.1588 
lfingers 7.12502 
lthumb 24.1904 60.6532 
rfemur -19.9813 -4.65416 30.1546 
rtibia 25.5806 
rfoot -10.3182 -6.18722 
rtoes 18.4995 
lfemur -17.6359 2.76654 -9.22248 
ltibia 30.5707 
lfoot -13.9 2.61837 
ltoes -11.1209 
